# xmcd CD database file
#
# Track frame offsets:
#	150
#	15362
#	19750
#	36325
#	54807
#	72197
#	85950
#	106692
#	124627
#	139275
#	159225
#
# Disc length: 2359 seconds
#
# Revision: 0
# Processed by: cddbd v1.5.1PL0 Copyright (c) Steve Scherf et al.
# Submitted via: CDex 1.51
#
DISCID=7e09350b
DTITLE=Ne Zhdali - ?? ????? (Hey Driver Cool Down The Horses !!!)
DYEAR=1995
DGENRE=Jazz
TTITLE0=Chrysanthemums
TTITLE1=Grincements de roues
TTITLE2=Lovin'boatful
TTITLE3=They are also sad in china
TTITLE4=Hibgarian young years
TTITLE5=Greek maturity
TTITLE6=Hey driver cool down the horses !
TTITLE7=Poitiers
TTITLE8=Death of T.
TTITLE9=Kukaratcha
TTITLE10=Cafe Fanconi
EXTD=YEAR: 1995
EXTT0=
EXTT1=
EXTT2=
EXTT3=
EXTT4=
EXTT5=
EXTT6=
EXTT7=
EXTT8=
EXTT9=
EXTT10=
PLAYORDER=
